<?xml version="1.0" encoding="utf-8"?>
<!-- Generator: Adobe Illustrator 18.0.0, SVG Export Plug-In . SVG Version: 6.00 Build 0)  -->
<!DOCTYPE svg PUBLIC "-//W3C//DTD SVG 1.1//EN" "http://www.w3.org/Graphics/SVG/1.1/DTD/svg11.dtd">
<svg version="1.1" id="Layer_1" xmlns="http://www.w3.org/2000/svg" xmlns:xlink="http://www.w3.org/1999/xlink" x="0px" y="0px"
	 viewBox="0 0 160 160" enable-background="new 0 0 160 160" xml:space="preserve">
<path fill="#F9A7A7" d="M149.9,71.8c-0.5,4.6-1.5,9.1-2.9,13.5c-3,9-8.3,17.4-15.8,22.8c-4.4,3.2-9.5,5.3-14.5,7.3
	C113,117,96,119.7,91.5,119c-5.5-0.8-11.2-2.4-14.9-6.6c-4.2-4.6-5-11.4-4.9-17.8c2.8,0.4,5.8,0.5,8.6,0.7c0.5,0,1,0,1.5-0.1
	c7.1,4.7,15.6,7.4,24.7,7.4C126.2,102.8,143.1,89.9,149.9,71.8z"/>
<path fill="#F98282" d="M153.1,54.3c0,6.2-1.1,12.1-3.2,17.6c-6.8,18.1-23.7,30.9-43.4,30.9c-9.1,0-17.5-2.7-24.7-7.4
	c-0.5,0.1-1,0.1-1.5,0.1c-2.9-0.1-5.8-0.3-8.6-0.7c-4.5-0.6-8.8-1.7-12.4-4.2c-1.5-1-5-5.2-3.7-6c2.5-1.5,9-4,10.4-6.7
	c-3.8-7-5.9-15.1-5.9-23.8C60.2,27.3,81,5.6,106.7,5.6C132.3,5.7,153.1,27.5,153.1,54.3z"/>
<path fill="#B4EFDF" d="M83.1,147.7c-3.8,4.2-9.5,5.7-14.9,6.6c-4.5,0.7-21.5-2.1-25.2-3.6c-5-2.1-10.1-4.1-14.5-7.3
	c-7.5-5.4-12.8-13.8-15.8-22.8c-1.6-4.8-2.5-9.7-3-14.8c6.7,18.1,23.6,31,43.3,31c9.1,0,17.5-2.7,24.7-7.4c0.5,0.1,1,0.1,1.5,0.1
	c2.9-0.1,5.9-0.3,8.8-0.7C88.2,135.5,87.5,142.8,83.1,147.7z"/>
<path fill="#8BDCCB" d="M100.2,125.6c-3.5,2.4-7.8,3.5-12.3,4.1c-2.9,0.4-5.9,0.6-8.8,0.7c-0.5,0-1,0-1.5-0.1
	c-7.1,4.7-15.6,7.4-24.7,7.4c-19.7,0-36.6-12.8-43.3-31c-2-5.4-3.2-11.4-3.2-17.6c0-26.8,20.8-48.5,46.5-48.5s46.5,21.7,46.5,48.5
	c0,8.6-2.2,16.7-5.9,23.8c1.4,2.7,7.9,5.1,10.4,6.7C105.2,120.4,101.7,124.6,100.2,125.6z"/>
<path fill="#BCBEC0" d="M101.7,118.5c-4.3,0.6-8.3,0.9-10.2,0.6c-5.5-0.8-11.2-2.4-14.9-6.6c-4.2-4.6-5-11.3-4.9-17.8
	c2.8,0.4,5.8,0.5,8.6,0.7c0.5,0,1,0,1.5-0.1c4.8,3.2,10.2,5.4,16,6.6c-1,3.9-2.5,7.6-4.3,11.1C94.6,115,98.8,117,101.7,118.5z"/>
<path fill="#8B8282" d="M99.5,89.2c0,4-0.5,8-1.4,11.7c-0.1,0.3-0.2,0.7-0.2,1c-5.8-1.1-11.2-3.4-16-6.6c-0.5,0.1-1,0.1-1.5,0.1
	c-2.9-0.1-5.8-0.3-8.6-0.7c-4.5-0.6-8.8-1.7-12.4-4.1c-1.6-1.1-5-5.2-3.7-6c2.5-1.6,9-4,10.4-6.7c-3.8-7-5.9-15.1-5.9-23.8
	c0-4.4,0.6-8.6,1.6-12.6C83.2,45.7,99.5,65.5,99.5,89.2z"/>
<path fill="#8CA7A7" d="M102,118.3c-4.3,0.6-8.3,0.9-10.2,0.6c-5.5-0.8-11.2-2.4-14.9-6.6c-4.2-4.6-5-11.3-4.9-17.8
	c2.8,0.4,5.8,0.5,8.6,0.7c0.5,0,1,0,1.5-0.1c4.8,3.2,10.2,5.4,16,6.6c-1,3.9-2.5,7.6-4.3,11.1C94.9,114.9,99.1,116.8,102,118.3z"/>
</svg>
